<svg width="32" height="25" viewBox="0 0 32 25" fill="none" xmlns="http://www.w3.org/2000/svg">
<path d="M27.107 2.25999C25.0356 1.321 22.8208 0.638577 20.5052 0.25C20.2208 0.748142 19.8886 1.41815 19.6595 1.95115C17.198 1.59249 14.7591 1.59249 12.3429 1.95115C12.1139 1.41815 11.7741 0.748142 11.4871 0.25C9.16908 0.638577 6.95167 1.32351 4.88026 2.26497C0.70219 8.38203 -0.430415 14.3472 0.135889 20.2276C2.907 22.2326 5.59255 23.4505 8.23277 24.2475C8.88465 23.3783 9.46605 22.4542 9.9669 21.4804C9.013 21.1292 8.09937 20.6959 7.2361 20.1927C7.46512 20.0284 7.68914 19.8565 7.90557 19.6796C13.1709 22.0657 18.8919 22.0657 24.0943 19.6796C24.3133 19.8565 24.5373 20.0284 24.7638 20.1927C23.898 20.6983 22.9818 21.1317 22.0279 21.4829C22.5288 22.4542 23.1077 23.3808 23.7621 24.25C26.4048 23.453 29.0929 22.2351 31.864 20.2276C32.5285 13.4107 30.7289 7.50033 27.107 2.25999ZM10.6842 16.6112C9.10363 16.6112 7.8074 15.1815 7.8074 13.4406C7.8074 11.6996 9.07595 10.2675 10.6842 10.2675C12.2926 10.2675 13.5887 11.6971 13.5611 13.4406C13.5636 15.1815 12.2926 16.6112 10.6842 16.6112ZM21.3157 16.6112C19.735 16.6112 18.4388 15.1815 18.4388 13.4406C18.4388 11.6996 19.7073 10.2675 21.3157 10.2675C22.9239 10.2675 24.2202 11.6971 24.1925 13.4406C24.1925 15.1815 22.9239 16.6112 21.3157 16.6112Z" fill="#D9D9D9"/>
</svg>
