<svg width="32" height="33" viewBox="0 0 32 33" fill="none" xmlns="http://www.w3.org/2000/svg">
<path d="M27.107 6.00999C25.0356 5.071 22.8208 4.38858 20.5052 4C20.2208 4.49814 19.8886 5.16815 19.6595 5.70115C17.198 5.34249 14.7591 5.34249 12.3429 5.70115C12.1139 5.16815 11.7741 4.49814 11.4871 4C9.16908 4.38858 6.95167 5.07351 4.88026 6.01497C0.70219 12.132 -0.430415 18.0972 0.135889 23.9776C2.907 25.9826 5.59255 27.2005 8.23277 27.9975C8.88465 27.1283 9.46605 26.2042 9.9669 25.2304C9.013 24.8792 8.09937 24.4459 7.2361 23.9427C7.46512 23.7784 7.68914 23.6065 7.90557 23.4296C13.1709 25.8157 18.8919 25.8157 24.0943 23.4296C24.3133 23.6065 24.5373 23.7784 24.7638 23.9427C23.898 24.4483 22.9818 24.8817 22.0279 25.2329C22.5288 26.2042 23.1077 27.1308 23.7621 28C26.4048 27.203 29.0929 25.9851 31.864 23.9776C32.5285 17.1607 30.7289 11.2503 27.107 6.00999ZM10.6842 20.3612C9.10363 20.3612 7.8074 18.9315 7.8074 17.1906C7.8074 15.4496 9.07595 14.0175 10.6842 14.0175C12.2926 14.0175 13.5887 15.4471 13.5611 17.1906C13.5636 18.9315 12.2926 20.3612 10.6842 20.3612ZM21.3157 20.3612C19.7351 20.3612 18.4388 18.9315 18.4388 17.1906C18.4388 15.4496 19.7073 14.0175 21.3157 14.0175C22.9239 14.0175 24.2202 15.4471 24.1925 17.1906C24.1925 18.9315 22.9239 20.3612 21.3157 20.3612Z" fill="#181818"/>
</svg>
