<svg width="129" height="128" viewBox="0 0 129 128" fill="none" xmlns="http://www.w3.org/2000/svg">
<path fill-rule="evenodd" clip-rule="evenodd" d="M109.873 115.066C110.96 114.45 111.976 113.873 112.871 113.351C118.02 110.358 117.075 105.794 113.842 104.407C110.609 103.02 107.962 100.833 108.164 96.6376C108.34 92.4766 105.309 89.7025 105.309 89.7025C105.309 89.7025 107.962 80.5466 105.492 72.9622C103.021 65.4122 94.8725 53.2701 88.6081 44.1415C85.38 39.4235 85.2278 34.3299 85.0582 28.6521C84.8987 23.3116 84.7237 17.4543 81.9591 10.9068C76.2549 -2.62216 61.464 -1.82246 53.4915 3.94402C46.543 8.97025 47.507 20.4777 48.124 27.8433C48.215 28.9293 48.2984 29.9252 48.3478 30.7971C48.7324 37.5482 48.5238 42.3788 47.7872 44.1143C47.4062 45.0263 45.8457 47.18 43.9552 49.7892C42.1914 52.2235 40.1403 55.0544 38.4916 57.6433C36.5696 60.6827 34.9459 65.5461 33.4476 70.0336C32.2882 73.5061 31.2039 76.7536 30.1148 78.7567C27.6705 83.3212 29.3782 87.4822 29.3782 87.4822C29.3782 87.4822 27.6701 88.0974 26.321 91.0901C24.9975 94.0488 22.3508 95.4633 17.5855 96.4267C12.8528 97.4446 12.8528 100.643 13.9938 104.223C14.9287 107.137 14.3391 109.005 13.3721 112.07C13.1531 112.764 12.9147 113.52 12.6702 114.363C11.3471 118.927 17.9701 120.314 24.4365 121.114C27.7138 121.524 31.197 122.858 34.6258 124.17C37.9355 125.438 41.1947 126.686 44.1691 127.065C50.2575 127.871 52.1416 122.719 52.1416 122.719C52.1416 122.719 58.9929 121.113 66.1959 120.929C73.4058 120.717 80.2308 122.5 80.2308 122.5C80.2308 122.5 81.5544 125.678 84.025 127.065C86.4956 128.479 91.8149 128.67 95.2241 124.906C98.0431 121.776 104.742 117.977 109.873 115.066ZM66.8346 28.7131C66.5024 28.0434 66.3 27.1893 66.3 26.3352C66.3 23.9917 67.7018 22.0648 69.3836 22.0648C71.111 22.0648 72.4865 23.9913 72.4865 26.3352C72.4865 28.1255 71.6716 29.6765 70.4985 30.2844C70.7651 30.4015 71.0198 30.517 71.2664 30.6286L71.2669 30.6289L71.267 30.6289L71.2671 30.629C71.5388 30.7521 71.8004 30.8706 72.0566 30.9817C73.9926 29.7517 75.3161 27.1897 75.3161 24.2307C75.3161 20.0628 72.6889 16.6738 69.4297 16.6738C66.1702 16.6738 63.5495 20.0628 63.5495 24.2307C63.5495 25.4538 63.7778 26.6017 64.1624 27.6196C64.899 27.9138 65.8181 28.2828 66.8346 28.7131ZM37.194 95.8387C35.8186 93.5977 32.4811 89.6212 30.6753 90.7419C29.8024 91.2627 29.2419 92.4753 28.6489 93.7582C27.9972 95.1679 27.3064 96.6626 26.1186 97.4174C25.1925 98.0059 23.6601 98.3542 22.1398 98.6998C19.9361 99.2007 17.7576 99.6958 17.4878 100.909C17.2666 101.892 17.4594 102.837 17.6741 103.89C17.9084 105.039 18.1687 106.315 17.9441 107.906C17.7813 108.923 17.4668 109.959 17.1689 110.941C16.5845 112.867 16.0637 114.583 16.8753 115.538C17.5023 116.281 20.3603 116.766 23.4601 117.292H23.4601C26.2582 117.767 29.2531 118.275 30.982 119.036C31.1422 119.107 31.3108 119.181 31.4872 119.258C35.3212 120.945 42.7703 124.222 45.5185 123.334C45.5185 123.334 48.7324 121.25 49.3123 118.394C49.9252 115.538 47.9628 112.361 45.8248 109.963C44.2827 108.226 41.1096 102.659 38.9846 98.9312C38.1998 97.5545 37.558 96.4284 37.194 95.8387ZM56.4705 40.8279C54.8408 39.7076 51.7836 37.0903 52.5527 35.7035C52.5527 35.7035 54.945 33.7835 55.9887 32.7997C57.0315 31.7814 59.7301 29.3831 61.3599 29.6976C62.4883 29.9043 65.0043 30.9567 66.9644 31.7766L66.9644 31.7766L66.9644 31.7766L66.9645 31.7767C67.7901 32.122 68.5171 32.4261 69.0001 32.6083C70.6299 33.1959 72.4353 34.289 72.2593 35.3824C72.1201 36.1595 71.6772 36.4009 70.6894 36.9393L70.6894 36.9393C70.2443 37.1819 69.6886 37.4848 69.0001 37.9241C68.849 38.0198 68.6855 38.1237 68.5116 38.2341L68.5098 38.2353L68.5098 38.2353C66.1628 39.7259 61.9187 42.4212 60.493 42.6183C59.241 42.792 58.4324 42.2155 57.2817 41.3951L57.2816 41.3951C57.0303 41.2159 56.7627 41.0251 56.4705 40.8279ZM52.9304 31.8634C53.5693 31.3852 54.1822 30.7976 54.8405 30.1279C54.8006 30.1419 54.7623 30.1558 54.7239 30.1698L54.7237 30.1699L54.7234 30.17L54.7232 30.1701C54.6868 30.1833 54.6503 30.1966 54.6121 30.21C53.2367 30.4489 51.8876 28.8707 51.529 26.6845C51.2029 24.5252 52.0112 22.5711 53.3673 22.3317C54.7168 22.12 56.0923 23.6983 56.4443 25.83C56.6269 27.0328 56.4703 28.1807 56.0663 28.98C56.2758 28.7601 56.5036 28.5589 56.7451 28.3456L56.7452 28.3455L56.7452 28.3455C56.7964 28.3003 56.8482 28.2545 56.9006 28.2079C57.5135 27.6476 58.1524 27.2993 58.7913 27.0872C58.9149 26.4176 58.9932 25.7479 58.9932 25.0307C58.9932 21.0814 56.9006 17.877 54.3322 17.877C51.7573 17.877 49.6972 21.0542 49.6972 25.0307C49.6972 28.2352 51.0727 30.9544 52.9304 31.8634ZM88.5811 74.3562C89.7286 82.7058 87.8185 89.0879 87.8185 89.0879C87.8185 89.0879 83.4638 87.8851 82.904 90.6593C82.3434 93.4606 82.3434 103.608 82.3434 103.608C82.3434 103.608 76.4566 112.149 67.3435 113.563C58.2297 114.95 53.6668 113.939 53.6668 113.939L48.5495 107.796C48.5495 107.796 52.5259 107.181 51.9653 102.992C51.6809 100.881 48.556 98.3554 45.2741 95.7034L45.2741 95.7034C42.0887 93.1293 38.7555 90.4357 37.728 87.8847C35.642 82.7058 37.3435 73.9527 40.0227 69.5731C41.2547 67.5375 42.2833 64.3779 43.2979 61.2614C44.4627 57.6833 45.6091 54.162 47.0237 52.4638C49.6967 49.2935 51.7564 42.5359 50.8178 39.5501C50.8178 39.5501 56.5216 46.7038 60.4918 45.5287C62.2301 45.0029 64.9163 43.3764 67.5002 41.812C70.8269 39.7977 73.9838 37.8863 74.7287 38.5594C76.0522 39.7618 87.4339 65.9997 88.5811 74.3562ZM108.19 104.783C105.973 103.553 104.8 100.007 104.957 97.5194C105.106 95.0662 103.627 94.2946 103.627 94.2946C103.627 94.2946 102.584 96.5904 101.11 98.1346C99.6307 99.6856 94.7681 101.845 91.3845 100.294C87.9947 98.7498 88.5812 92.8805 88.5812 92.8805C88.5812 92.8805 87.4077 92.5867 86.6712 93.195C86.1163 93.6582 86.3087 96.1378 86.5043 98.6563C86.5683 99.4809 86.6326 100.31 86.6712 101.073C86.8212 104.168 85.9346 109.587 84.8851 114.527C83.8683 119.488 85.9346 122.877 88.3005 123.649C90.6409 124.428 94.487 121.784 97.414 118.552C99.1813 116.605 103.431 114.33 106.941 112.451C109.296 111.191 111.318 110.109 112.035 109.423C113.698 107.803 110.744 106.184 108.544 104.978C108.423 104.911 108.305 104.846 108.19 104.783Z" fill="#D9D9D9"/>
</svg>
