<svg width="105" height="128" viewBox="0 0 105 128" fill="none" xmlns="http://www.w3.org/2000/svg">
<path d="M101.179 43.6396C100.438 44.2156 87.3562 51.602 87.3562 68.026C87.3562 87.0231 104.002 93.7438 104.5 93.9102C104.423 94.3198 101.856 103.114 95.7237 112.075C90.2561 119.961 84.5457 127.834 75.8588 127.834C67.1719 127.834 64.9363 122.777 54.9081 122.777C45.1353 122.777 41.6605 128 33.7146 128C25.7686 128 20.2244 120.703 13.8497 111.742C6.46585 101.22 0.5 84.8725 0.5 69.3573C0.5 44.4716 16.6474 31.2735 32.5393 31.2735C40.9835 31.2735 48.0224 36.8293 53.324 36.8293C58.37 36.8293 66.2393 30.9407 75.846 30.9407C79.4869 30.9407 92.5683 31.2735 101.179 43.6396ZM71.2854 20.4052C75.2584 15.6816 78.0689 9.12731 78.0689 2.57306C78.0689 1.66417 77.9922 0.742474 77.8261 0C71.3621 0.243224 63.6716 4.31403 59.0343 9.70337C55.3935 13.851 51.9954 20.4052 51.9954 27.0491C51.9954 28.0476 52.1615 29.0461 52.2381 29.3661C52.6469 29.4429 53.3112 29.5326 53.9755 29.5326C59.7753 29.5326 67.0697 25.641 71.2854 20.4052Z" fill="#D9D9D9"/>
</svg>
