<svg width="100" height="100" viewBox="0 0 100 100" fill="none" xmlns="http://www.w3.org/2000/svg">
<path fill-rule="evenodd" clip-rule="evenodd" d="M50 100C77.6142 100 100 77.6142 100 50C100 22.3858 77.6142 0 50 0C22.3858 0 0 22.3858 0 50C0 77.6142 22.3858 100 50 100ZM84.0239 32.5694C85.6155 31.0375 85.6639 28.5053 84.132 26.9136C82.6 25.322 80.0678 25.2736 78.4761 26.8056L39.319 64.4942L21.785 44.0706C20.3459 42.3944 17.8206 42.2022 16.1444 43.6412C14.4683 45.0802 14.276 47.6055 15.715 49.2817L36.0072 72.9181C36.724 73.7529 37.753 74.2557 38.8521 74.308C39.9512 74.3603 41.0233 73.9575 41.8161 73.1944L84.0239 32.5694Z" fill="#E7D214"/>
</svg>
