<svg width="100" height="100" viewBox="0 0 100 100" fill="none" xmlns="http://www.w3.org/2000/svg">
<mask id="path-1-inside-1_404_275" fill="white">
<path d="M100 50C100 77.6142 77.6142 100 50 100C22.3858 100 0 77.6142 0 50C0 22.3858 22.3858 0 50 0C77.6142 0 100 22.3858 100 50Z"/>
</mask>
<path d="M96 50C96 75.4051 75.4051 96 50 96V104C79.8234 104 104 79.8234 104 50H96ZM50 96C24.5949 96 4 75.4051 4 50H-4C-4 79.8234 20.1766 104 50 104V96ZM4 50C4 24.5949 24.5949 4 50 4V-4C20.1766 -4 -4 20.1766 -4 50H4ZM50 4C75.4051 4 96 24.5949 96 50H104C104 20.1766 79.8234 -4 50 -4V4Z" fill="#595959" mask="url(#path-1-inside-1_404_275)"/>
</svg>
