<svg width="28" height="29" viewBox="0 0 28 29" fill="none" xmlns="http://www.w3.org/2000/svg">
<path fill-rule="evenodd" clip-rule="evenodd" d="M28 14.25C28 21.982 21.732 28.25 14 28.25C6.26801 28.25 0 21.982 0 14.25C0 6.51801 6.26801 0.25 14 0.25C21.732 0.25 28 6.51801 28 14.25ZM14.188 9.64062C12.461 10.3549 9.0217 11.8272 3.85538 14.0428C3.02876 14.3781 2.58594 14.6988 2.54165 15.0195C2.47629 15.5618 3.16359 15.7724 4.09076 16.0565C4.21041 16.0932 4.33404 16.1311 4.46057 16.1711C5.37575 16.4626 6.58614 16.7979 7.22086 16.8125C7.79654 16.827 8.43126 16.5938 9.13978 16.1128C13.9666 12.8913 16.4464 11.2587 16.6088 11.2295C16.7269 11.2003 16.8745 11.1712 16.9778 11.2587C17.0812 11.3461 17.0812 11.521 17.0664 11.5648C16.996 11.8545 14.1164 14.4945 12.806 15.6959C12.4684 16.0054 12.235 16.2194 12.1805 16.2731C12.0421 16.4138 11.9011 16.5471 11.7656 16.6752C10.9183 17.4761 10.2825 18.0771 11.7967 19.0573C12.4852 19.5061 13.0404 19.8802 13.5872 20.2486C14.248 20.6939 14.8965 21.1308 15.7527 21.6812C15.9544 21.812 16.1475 21.9476 16.3359 22.08C17.0712 22.5966 17.7347 23.0627 18.5572 22.9931C19.0296 22.9493 19.5167 22.512 19.7676 21.2001C20.3581 18.1098 21.5094 11.3898 21.7751 8.62023C21.8046 8.387 21.7751 8.08088 21.7456 7.93512C21.7161 7.78935 21.6718 7.59985 21.4947 7.45408C21.2733 7.27915 20.9485 7.25 20.8009 7.25C20.1367 7.26458 19.1034 7.61442 14.188 9.64062Z" fill="#D9D9D9"/>
</svg>
