<svg width="32" height="33" viewBox="0 0 32 33" fill="none" xmlns="http://www.w3.org/2000/svg">
<path fill-rule="evenodd" clip-rule="evenodd" d="M30 16.5C30 24.232 23.732 30.5 16 30.5C8.26801 30.5 2 24.232 2 16.5C2 8.76801 8.26801 2.5 16 2.5C23.732 2.5 30 8.76801 30 16.5ZM16.188 11.8906C14.461 12.6049 11.0217 14.0772 5.85538 16.2928C5.02876 16.6281 4.58594 16.9488 4.54165 17.2695C4.47629 17.8118 5.16359 18.0224 6.09076 18.3065C6.21041 18.3432 6.33404 18.3811 6.46057 18.4211C7.37575 18.7126 8.58614 19.0479 9.22086 19.0625C9.79654 19.077 10.4313 18.8438 11.1398 18.3628C15.9666 15.1413 18.4464 13.5087 18.6088 13.4795C18.7269 13.4503 18.8745 13.4212 18.9778 13.5087C19.0812 13.5961 19.0812 13.771 19.0664 13.8148C18.996 14.1045 16.1164 16.7445 14.806 17.9459C14.4684 18.2554 14.235 18.4694 14.1805 18.5231C14.0421 18.6638 13.9011 18.7971 13.7656 18.9252C12.9183 19.7261 12.2825 20.3271 13.7967 21.3073C14.4852 21.7561 15.0404 22.1302 15.5872 22.4986C16.248 22.9439 16.8965 23.3808 17.7527 23.9312C17.9544 24.062 18.1475 24.1976 18.3359 24.33C19.0712 24.8466 19.7347 25.3127 20.5572 25.2431C21.0296 25.1993 21.5167 24.762 21.7676 23.4501C22.3581 20.3598 23.5094 13.6398 23.7751 10.8702C23.8046 10.637 23.7751 10.3309 23.7456 10.1851C23.7161 10.0393 23.6718 9.84985 23.4947 9.70408C23.2733 9.52915 22.9485 9.5 22.8009 9.5C22.1367 9.51458 21.1034 9.86442 16.188 11.8906Z" fill="#595959"/>
</svg>
