<svg width="32" height="27" viewBox="0 0 32 27" fill="none" xmlns="http://www.w3.org/2000/svg">
<path d="M28.7239 6.72263C28.7435 7.00471 28.7435 7.2868 28.7435 7.57148C28.7435 16.2458 22.1393 26.25 10.0635 26.25V26.2448C6.4962 26.25 3.00305 25.2283 0 23.3018C0.518708 23.3642 1.04002 23.3954 1.56262 23.3967C4.51887 23.3993 7.39062 22.4074 9.71635 20.5811C6.90701 20.5278 4.44347 18.6962 3.58286 16.0222C4.56697 16.212 5.58099 16.173 6.5469 15.9092C3.48405 15.2904 1.28052 12.5996 1.28052 9.47456V9.39136C2.19313 9.89963 3.21495 10.1817 4.26017 10.2129C1.37542 8.28513 0.486208 4.44778 2.22823 1.44757C5.56149 5.54881 10.4795 8.04205 15.7588 8.30593C15.2297 6.02588 15.9525 3.63663 17.6582 2.03383C20.3024 -0.451615 24.4612 -0.324223 26.9468 2.31851C28.4171 2.02863 29.8264 1.48916 31.116 0.724811C30.6259 2.24442 29.6002 3.53523 28.2299 4.35548C29.5313 4.20209 30.8027 3.85371 32 3.32205C31.1186 4.64276 30.0084 5.79319 28.7239 6.72263Z" fill="#D9D9D9"/>
</svg>
