<svg width="32" height="33" viewBox="0 0 32 33" fill="none" xmlns="http://www.w3.org/2000/svg">
<path fill-rule="evenodd" clip-rule="evenodd" d="M28.5017 5.9071C29.8794 6.26929 30.9622 7.33255 31.3309 8.68556C31.9973 11.1355 32 16.25 32 16.25C32 16.25 32 21.3646 31.3309 23.8145C30.9622 25.1675 29.8794 26.2307 28.5017 26.5929C26.0073 27.25 15.9999 27.25 15.9999 27.25C15.9999 27.25 5.99275 27.25 3.49818 26.5929C2.12052 26.2307 1.03787 25.1675 0.669081 23.8145C0 21.3646 0 16.25 0 16.25C0 16.25 0 11.1355 0.669081 8.68556C1.03787 7.33255 2.12052 6.26929 3.49818 5.9071C5.99275 5.25 15.9999 5.25 15.9999 5.25C15.9999 5.25 26.0073 5.25 28.5017 5.9071ZM21.1106 16.2503L12.7971 20.9638V11.5368L21.1106 16.2503Z" fill="#D9D9D9"/>
</svg>
