<svg width="32" height="33" viewBox="0 0 32 33" fill="none" xmlns="http://www.w3.org/2000/svg">
<path fill-rule="evenodd" clip-rule="evenodd" d="M28.5017 6.1571C29.8794 6.51929 30.9622 7.58255 31.3309 8.93556C31.9973 11.3855 32 16.5 32 16.5C32 16.5 32 21.6146 31.3309 24.0645C30.9622 25.4175 29.8794 26.4807 28.5017 26.8429C26.0073 27.5 15.9999 27.5 15.9999 27.5C15.9999 27.5 5.99275 27.5 3.49818 26.8429C2.12052 26.4807 1.03787 25.4175 0.669081 24.0645C0 21.6146 0 16.5 0 16.5C0 16.5 0 11.3855 0.669081 8.93556C1.03787 7.58255 2.12052 6.51929 3.49818 6.1571C5.99275 5.5 15.9999 5.5 15.9999 5.5C15.9999 5.5 26.0073 5.5 28.5017 6.1571ZM21.1106 16.5003L12.7971 21.2138V11.7868L21.1106 16.5003Z" fill="#181818"/>
</svg>
